<?xml version="1.0" encoding="UTF-8"?>
<svg id="Camada_2" data-name="Camada 2" xmlns="http://www.w3.org/2000/svg" viewBox="0 0 15.36 21.94">
  <defs>
    <style>
      .cls-1 {
        fill: #e5283a;
      }
    </style>
  </defs>
  <g id="Sobre">
    <g id="_03Bloco_cópia" data-name="03Bloco cópia">
      <g id="_21_-_30" data-name=" 21 - 30">
        <g id="Innovative">
          <path class="cls-1" d="M7.68,0C3.44,0,0,3.44,0,7.68c-.06,2.17,.78,4.26,2.32,5.78,.95,.9,1.5,2.15,1.51,3.46v1.18c0,.69,.44,1.31,1.1,1.54v.1c0,1.21,.98,2.19,2.19,2.19h1.1c1.21,0,2.19-.98,2.19-2.19v-.1c.66-.23,1.09-.85,1.1-1.54v-1.18c.01-1.31,.56-2.56,1.51-3.46,1.54-1.52,2.38-3.61,2.32-5.78C15.35,3.44,11.92,0,7.68,0Zm.55,20.84h-1.1c-.61,0-1.1-.49-1.1-1.1h3.29c0,.61-.49,1.1-1.1,1.1Zm1.65-2.19H5.49c-.3,0-.55-.25-.55-.55v-.55h5.48v.55c0,.3-.25,.55-.55,.55Zm-3.84-7.13h-.55c-.3,0-.55-.25-.55-.55s.25-.55,.55-.55,.55,.25,.55,.55v.55Zm1.1,1.1h1.1v3.84h-1.1v-3.84Zm5.14,.05c-1.05,1-1.7,2.34-1.83,3.78h-1.12v-3.84h.55c.91,0,1.65-.74,1.65-1.65s-.74-1.65-1.65-1.65-1.65,.74-1.65,1.65v.55h-1.1v-.55c0-.91-.74-1.65-1.65-1.65s-1.65,.74-1.65,1.65,.74,1.65,1.65,1.65h.55v3.84h-1.12c-.13-1.44-.78-2.79-1.83-3.78-1.33-1.32-2.05-3.12-1.99-4.99,0-3.63,2.95-6.58,6.58-6.58,3.63,0,6.58,2.95,6.58,6.58,.06,1.87-.67,3.68-1.99,4.99Zm-2.94-1.15v-.55c0-.3,.25-.55,.55-.55s.55,.25,.55,.55-.25,.55-.55,.55h-.55Z"/>
        </g>
      </g>
    </g>
  </g>
</svg>