<?xml version="1.0" encoding="UTF-8"?>
<svg id="Camada_2" data-name="Camada 2" xmlns="http://www.w3.org/2000/svg" viewBox="0 0 82.7 82.7">
  <defs>
    <style>
      .cls-1 {
        fill: #e5283a;
      }
    </style>
  </defs>
  <g id="Diferenciais">
    <g id="_03Bloco_cópia_cópia" data-name="03Bloco cópia cópia">
      <g id="Camada_31_cópia_2_cópia" data-name="Camada 31 cópia 2 cópia">
        <g>
          <path class="cls-1" d="M78.65,19.7h-19.24l-13.26-11.67c1.44-2.67,.43-6-2.26-7.42-2.32-1.22-5.23-.6-6.84,1.47-1.35,1.73-1.52,4.06-.5,5.95l-13.26,11.67H4.05c-2.23,0-4.04,1.81-4.05,4.05v2.82c0,.68,.55,1.23,1.23,1.23h1.58v53.67c0,.68,.55,1.23,1.23,1.23H78.65c.68,0,1.23-.55,1.23-1.23h0V27.8h1.58c.68,0,1.23-.55,1.23-1.23h0v-2.82c0-2.23-1.81-4.04-4.05-4.05ZM41.35,2.46c1.76,0,3.17,1.53,2.97,3.33-.15,1.37-1.26,2.48-2.63,2.63-1.8,.2-3.33-1.21-3.33-2.97,0-1.65,1.34-2.99,2.99-2.99Zm-3.17,7.42c1.89,1.37,4.45,1.37,6.34,0l11.16,9.82H27.02l11.16-9.82Zm38.42,70.35H6.1c-.45,0-.82-.37-.82-.82V27.8H77.42v51.61c0,.45-.37,.82-.82,.82Zm3.64-54.9H2.46v-1.58c0-.87,.71-1.58,1.58-1.58H78.65c.87,0,1.58,.71,1.58,1.58v1.58Z"/>
          <path class="cls-1" d="M13.9,72.84h27.45c.68,0,1.23-.55,1.23-1.23V36.42c0-.68-.55-1.23-1.23-1.23H13.9c-.68,0-1.23,.55-1.23,1.23v35.19c0,.68,.55,1.23,1.23,1.23Zm1.23-35.19h24.99v32.73H15.13V37.65Z"/>
          <path class="cls-1" d="M51.2,55.25h17.6c.68,0,1.23-.55,1.23-1.23v-17.6c0-.68-.55-1.23-1.23-1.23h-17.6c-.68,0-1.23,.55-1.23,1.23v17.6c0,.68,.55,1.23,1.23,1.23Zm1.23-17.6h15.13v15.13h-15.13v-15.13Z"/>
          <path class="cls-1" d="M51.2,72.84h17.6c.68,0,1.23-.55,1.23-1.23v-7.74c0-.68-.55-1.23-1.23-1.23h-17.6c-.68,0-1.23,.55-1.23,1.23v7.74c0,.68,.55,1.23,1.23,1.23Zm1.23-7.74h15.13v5.28h-15.13v-5.28Z"/>
          <path class="cls-1" d="M23.7,43.52h7.86c.68,0,1.23-.55,1.23-1.23s-.55-1.23-1.23-1.23h-7.86c-.68,0-1.23,.55-1.23,1.23s.55,1.23,1.23,1.23Z"/>
          <path class="cls-1" d="M35.48,46.92h-15.72c-.68,0-1.23,.55-1.23,1.23s.55,1.23,1.23,1.23h15.72c.68,0,1.23-.55,1.23-1.23s-.55-1.23-1.23-1.23Z"/>
          <path class="cls-1" d="M19.77,55.25h7.86c.68,0,1.23-.55,1.23-1.23s-.55-1.23-1.23-1.23h-7.86c-.68,0-1.23,.55-1.23,1.23s.55,1.23,1.23,1.23Z"/>
          <path class="cls-1" d="M35.48,58.65h-15.72c-.68,0-1.23,.55-1.23,1.23s.55,1.23,1.23,1.23h15.72c.68,0,1.23-.55,1.23-1.23s-.55-1.23-1.23-1.23Z"/>
          <path class="cls-1" d="M27.63,64.51h-7.86c-.68,0-1.23,.55-1.23,1.23s.55,1.23,1.23,1.23h7.86c.68,0,1.23-.55,1.23-1.23s-.55-1.23-1.23-1.23Z"/>
        </g>
      </g>
    </g>
  </g>
</svg>