<?xml version="1.0" encoding="UTF-8"?>
<svg id="Camada_2" data-name="Camada 2" xmlns="http://www.w3.org/2000/svg" viewBox="0 0 23.27 26.28">
  <defs>
    <style>
      .cls-1 {
        fill: #e5283a;
      }
    </style>
  </defs>
  <g id="Sobre">
    <g id="_03Bloco_cópia" data-name="03Bloco cópia">
      <path class="cls-1" d="M22.19,3.01H10.01c.09-.18,.15-.38,.18-.58,.18-1.15-.61-2.22-1.76-2.4-1.15-.18-2.22,.61-2.4,1.76-.06,.42,0,.85,.18,1.23h-2.12c-.6,0-1.09,.49-1.09,1.09v2.12c-.18-.09-.38-.15-.58-.18C1.28,5.85,.2,6.64,.03,7.79c-.18,1.15,.61,2.22,1.76,2.4,.42,.06,.85,0,1.23-.18v12.18c0,.6,.49,1.09,1.09,1.09h2.82s0,0,0,0c0,0,.01,0,.02,0,.09,0,.17-.04,.23-.11,0,0,0,0,0,0,0,0,0,0,0-.01,.05-.06,.09-.14,.09-.23,0,0,0,0,0,0,0,0,0-.01,0-.02,0-.09-.04-.17-.11-.23,0,0,0,0,0,0-.28-.26-.44-.63-.44-1.01,0-.77,.62-1.39,1.39-1.39,.77,0,1.39,.62,1.39,1.39,0,.38-.16,.75-.44,1.01,0,0,0,0,0,0-.02,.01-.02,.03-.04,.05-.04,.06-.07,.13-.07,.21,0,.2,.16,.36,.36,.36,0,0,0,0,0,0s0,0,0,0h6.96c-.14,.28-.21,.59-.2,.91,0,1.16,.94,2.1,2.11,2.1,.15,0,.31-.02,.46-.05,.85-.19,1.49-.87,1.62-1.73,.06-.42,0-.85-.18-1.23h2.12c.6,0,1.09-.49,1.09-1.09v-2.82c0-.1-.04-.2-.12-.27-.15-.14-.38-.13-.51,.02-.19,.2-.43,.34-.7,.4-.74,.17-1.48-.3-1.64-1.04-.09-.41,0-.84,.27-1.17,.04-.05,.08-.1,.13-.14,.55-.52,1.42-.49,1.94,.06,.07,.07,.16,.12,.27,.12,.2,0,.36-.16,.36-.36V4.1c0-.6-.49-1.09-1.09-1.09Zm-8.69,3.91V3.73h8.69c.2,0,.36,.16,.36,.36V12.78h-2.48c.09-.18,.15-.38,.18-.58,.18-1.15-.61-2.23-1.75-2.4-1.15-.18-2.23,.61-2.41,1.75-.06,.42,0,.85,.18,1.23h-2.77v-3.48c0-.1-.04-.2-.12-.27-.15-.14-.38-.13-.51,.02,0,0-.01,.01-.02,.02-.08,.08-.17,.15-.27,.21-.04,.02-.08,.04-.12,.06-.07,.03-.15,.07-.23,.09-.06,.02-.13,.03-.19,.04-.03,0-.06,0-.09,.01-.09,0-.19,0-.28,0,0,0-.02,0-.03,0-.11-.02-.22-.05-.33-.1-.01,0-.03-.01-.04-.02-.09-.04-.17-.09-.25-.15-.01-.01-.03-.02-.04-.03-.13-.11-.24-.24-.32-.39,0-.01-.02-.03-.03-.04-.07-.14-.11-.29-.13-.44,0-.03,0-.06-.01-.1-.01-.15,0-.3,.04-.45,0-.03,.02-.05,.03-.08,.05-.15,.12-.3,.23-.44,.04-.05,.08-.1,.13-.14,.55-.52,1.42-.49,1.94,.06,.07,.07,.16,.12,.27,.12,.2,0,.36-.16,.36-.36ZM1.89,9.47c-.24-.04-.46-.14-.65-.29-.59-.48-.68-1.35-.21-1.94,.04-.05,.08-.1,.13-.14,.55-.52,1.42-.49,1.94,.06,.07,.07,.16,.12,.27,.12,.2,0,.36-.16,.36-.36v-2.82c0-.2,.16-.36,.36-.36h2.82c.1,0,.2-.04,.27-.12,.14-.15,.12-.38-.02-.51-.33-.31-.49-.77-.42-1.22,.04-.24,.14-.46,.29-.65,.48-.59,1.35-.68,1.94-.21,.05,.04,.1,.08,.14,.13,.52,.55,.49,1.42-.06,1.94-.07,.07-.12,.16-.12,.27,0,.2,.16,.36,.36,.36h3.48v2.48s0,0-.01,0c-.17-.08-.34-.13-.52-.16-.02,0-.03-.01-.05-.02-.01,0-.03,0-.04,0-.12-.02-.24-.02-.36-.02-.01,0-.02,0-.03,0-.12,0-.24,.02-.36,.05,0,0-.02,0-.03,0-.06,.01-.11,.04-.17,.06-.08,.03-.16,.05-.23,.08-.01,0-.03,.02-.04,.02-.36,.18-.65,.45-.86,.77,0,0,0,0,0,.01-.07,.11-.13,.23-.17,.35,0,.02,0,.03-.01,.05-.04,.12-.07,.23-.09,.36,0,0,0,0,0,.01,0,.03,0,.06,0,.08-.01,.1-.02,.21-.02,.32,0,.07,.02,.13,.02,.19,0,.06,0,.13,.02,.19,0,0,0,.01,0,.02,.04,.18,.11,.35,.19,.5,.03,.05,.05,.09,.08,.14,.08,.13,.18,.26,.29,.37,.02,.02,.04,.04,.06,.06,.13,.11,.27,.21,.42,.29,.05,.02,.09,.05,.14,.07,.17,.08,.34,.14,.53,.17,.42,.06,.85,0,1.23-.18v2.77h-3.48c-.1,0-.2,.04-.27,.12-.14,.15-.13,.38,.02,.51,.33,.31,.49,.77,.42,1.22-.04,.23-.13,.44-.28,.63,0,0,0,.02-.01,.02-.22,.27-.51,.42-.83,.47-.04,0-.07,.03-.1,.03-.07,0-.13-.01-.2-.02-.29-.01-.57-.09-.81-.28-.05-.04-.1-.08-.14-.13-.52-.55-.49-1.42,.06-1.94,.07-.07,.12-.16,.12-.27,0-.2-.16-.36-.36-.36H3.73v-3.48c0-.1-.04-.2-.12-.27-.15-.14-.38-.13-.51,.02-.31,.33-.77,.49-1.22,.42Zm10.89,9.89v3.18h-2.78c.39-.81,.24-1.81-.45-2.46-.85-.8-2.19-.75-2.99,.1-.61,.66-.72,1.6-.36,2.36h-2.11c-.2,0-.36-.16-.36-.36V13.5h2.48s0,.01,0,.02c-.07,.16-.12,.33-.16,.5,0,.02-.01,.03-.02,.05-.01,.06,0,.13-.01,.19,0,.05-.02,.09-.02,.14,0,.02,0,.03,0,.05,0,.07,.01,.13,.02,.2,0,.07,.02,.15,.03,.22,.01,.06,.03,.11,.05,.16,.02,.08,.05,.16,.08,.23,.02,.04,.05,.09,.07,.13,.04,.08,.08,.15,.13,.22,.03,.04,.06,.08,.09,.11,.05,.07,.11,.13,.17,.19,.04,.04,.08,.07,.12,.1,.06,.05,.12,.1,.19,.15,.05,.03,.1,.05,.15,.08,.07,.04,.14,.08,.22,.11,.05,.02,.11,.03,.17,.05,.08,.02,.15,.05,.24,.06,.02,0,.03,0,.04,.01,.06,0,.11,0,.17,0,.05,0,.1,.02,.16,.02,.01,0,.03,0,.04,0,.1,0,.19-.02,.29-.03,.04,0,.08,0,.13-.01,0,0,.01,0,.02,0,.18-.04,.34-.11,.5-.19,.05-.03,.09-.05,.14-.08,.13-.08,.26-.18,.37-.29,.02-.02,.04-.04,.06-.06,.11-.13,.21-.27,.29-.42,.02-.05,.05-.09,.07-.14,.07-.17,.14-.34,.17-.53,.06-.42,0-.85-.18-1.23h2.77v3.48c0,.1,.04,.2,.12,.27,.15,.14,.38,.13,.51-.02,.1-.11,.23-.19,.36-.26,.05-.03,.1-.06,.15-.08,.01,0,.03,0,.04-.01,.18-.06,.36-.09,.55-.08,.19,.01,.37,.06,.53,.15,0,0,.02,.01,.02,.02,.15,.08,.28,.18,.39,.31,0,0,0,.01,.01,.02,.22,.26,.35,.61,.32,.98,0,0,0,0,0,0,0,.09-.02,.18-.05,.27,0,.03-.02,.06-.03,.08-.02,.06-.04,.12-.07,.17-.02,.04-.05,.07-.07,.11-.02,.04-.04,.08-.07,.11-.02,.03-.05,.05-.07,.07-.04,.04-.07,.08-.11,.12-.03,.02-.06,.04-.09,.07-.04,.03-.08,.06-.12,.09-.04,.02-.08,.04-.12,.05-.04,.02-.08,.04-.12,.06-.05,.02-.1,.03-.15,.04-.04,0-.07,.02-.11,.03-.07,0-.15,0-.23,0-.02,0-.03,0-.05,0-.35-.02-.67-.18-.91-.43-.07-.07-.16-.12-.27-.12-.2,0-.36,.16-.36,.36Zm9.77-3.09c-.43-.2-.91-.26-1.37-.15-1.13,.25-1.85,1.38-1.59,2.51,.19,.85,.87,1.49,1.73,1.62,.42,.06,.85,0,1.23-.18v2.12c0,.2-.16,.36-.36,.36h-2.82c-.1,0-.2,.04-.27,.12-.14,.15-.13,.38,.02,.51,.33,.31,.49,.77,.42,1.22-.04,.24-.14,.46-.29,.65-.48,.59-1.35,.68-1.94,.21-.05-.04-.1-.08-.14-.13-.52-.55-.49-1.42,.06-1.94,.07-.07,.12-.16,.12-.27,0-.2-.16-.36-.36-.36h-3.48v-2.48c.57,.27,1.23,.27,1.81,0,1.05-.5,1.5-1.75,1-2.8-.5-1.05-1.75-1.5-2.8-1v-2.77h3.48c.1,0,.2-.04,.27-.12,.14-.15,.12-.38-.02-.51-.33-.31-.49-.77-.42-1.22,.04-.24,.14-.46,.29-.65,.48-.59,1.35-.69,1.94-.21,.05,.04,.1,.08,.14,.13,.52,.55,.49,1.42-.06,1.94-.07,.07-.12,.16-.12,.27,0,.2,.16,.36,.36,.36h3.18v2.77Z"/>
    </g>
  </g>
</svg>