<?xml version="1.0" encoding="UTF-8"?>
<svg id="Camada_2" data-name="Camada 2" xmlns="http://www.w3.org/2000/svg" viewBox="0 0 86.17 82">
  <defs>
    <style>
      .cls-1 {
        fill: #e5283a;
      }
    </style>
  </defs>
  <g id="Diferenciais">
    <g id="_03Bloco_cópia_cópia" data-name="03Bloco cópia cópia">
      <g id="Camada_31_cópia_2_cópia" data-name="Camada 31 cópia 2 cópia">
        <g>
          <path class="cls-1" d="M51.72,68.68H13.25c-1.79,0-1.79-2.78,0-2.78H51.72c1.79,0,1.79,2.78,0,2.78Z"/>
          <path class="cls-1" d="M51.72,55.9H13.25c-1.79,0-1.79-2.78,0-2.78H51.72c1.79,0,1.79,2.78,0,2.78Z"/>
          <path class="cls-1" d="M51.72,30.35H13.25c-1.79,0-1.79-2.78,0-2.78H51.72c1.79,0,1.79,2.78,0,2.78Z"/>
          <path class="cls-1" d="M51.72,43.13H13.25c-1.79,0-1.79-2.78,0-2.78H51.72c1.79,0,1.79,2.78,0,2.78Z"/>
          <path class="cls-1" d="M85.88,15.18c-.75-2.05-2.71-2.88-4.55-3.72-2.36-1.07-5.3-.23-6.45,2.18l-2.08,4.32s0,0,0,0c0,0,0,0,0,0l-9.24,19.62V17.12h-.03c0-.38-.15-.76-.44-1.03L45.91,.36c-.26-.24-.6-.35-.94-.35h0s-37.77-.01-37.77-.01C3.23,0,0,3.23,0,7.2V74.8c0,3.97,3.23,7.2,7.2,7.2H56.36c3.97,0,7.2-3.23,7.2-7.2v-13.31l3.99-3.99c.11-.11,.21-.25,.28-.39l15.95-34.01,2.01-4.2s.04-.1,.06-.15c.43-1.24,.44-2.47,.04-3.57-.44-1.19,.4,1.09,0,0h0Zm-8.49-.33s0,0,0,0c.46-.97,1.68-1.36,2.72-.87l2.11,1.02c1.08,.52,1.37,1.72,1.02,2.79l-1.38,2.88-5.94-2.76,1.47-3.05ZM46.36,4.55l12.21,11.18h-10.03c-1.21,0-2.19-.98-2.19-2.19V4.55h0Zm14.42,70.25c0,2.44-1.98,4.42-4.42,4.42H7.2c-2.44,0-4.42-1.98-4.42-4.42V7.2c0-2.44,1.98-4.42,4.42-4.42H43.58V13.54c0,2.74,2.23,4.97,4.97,4.97h12.23v24.99l-3.99,8.47c-.06,.13-.1,.27-.12,.42l-1.39,10.98c-.1,1.02,.47,2.02,1.36,2.48,.97,.54,2.15,.37,2.96-.39l1.18-1.18v10.53h0Zm-1.59-20.17l4.99,2.31-6.05,6.05,1.06-8.36Zm6.71,.05l-6-2.78,14.82-31.48,5.95,2.76-14.78,31.5Z"/>
        </g>
      </g>
    </g>
  </g>
</svg>