<?xml version="1.0" encoding="UTF-8"?>
<svg id="Camada_2" data-name="Camada 2" xmlns="http://www.w3.org/2000/svg" viewBox="0 0 20.55 14.94">
  <defs>
    <style>
      .cls-1 {
        fill: #e5283a;
      }
    </style>
  </defs>
  <g id="Sobre">
    <g id="_03Bloco_cópia" data-name="03Bloco cópia">
      <path class="cls-1" d="M.93,14.94c.25,0,.48-.1,.66-.28l6.35-6.34,2.14,2.14c.36,.36,.96,.37,1.32,0h0s7.28-7.28,7.28-7.28v2.97c0,.52,.42,.93,.93,.93s.93-.42,.93-.93V.93c0-.52-.42-.93-.93-.93h-5.23c-.52,0-.93,.42-.93,.93s.42,.93,.93,.93h2.97l-6.62,6.62-2.14-2.14c-.36-.36-.96-.37-1.32,0h0S.27,13.35,.27,13.35c-.36,.37-.36,.96,0,1.32,.18,.17,.41,.27,.66,.27Z"/>
    </g>
  </g>
</svg>