<?xml version="1.0" encoding="UTF-8"?>
<svg id="Camada_2" data-name="Camada 2" xmlns="http://www.w3.org/2000/svg" viewBox="0 0 69.76 76.41">
  <defs>
    <style>
      .cls-1 {
        fill: #e5283a;
      }
    </style>
  </defs>
  <g id="Diferenciais">
    <g id="_03Bloco_cópia_cópia" data-name="03Bloco cópia cópia">
      <g id="Camada_31_cópia_2_cópia" data-name="Camada 31 cópia 2 cópia">
        <g>
          <path class="cls-1" d="M45.89,26.4l2.91-2.91c.67-.67,1.77-.67,2.44,0l1.69,1.69c.67,.67,.67,1.77,0,2.44l-2.91,2.91-4.13-4.13Z"/>
          <path class="cls-1" d="M.36,71.92L44.21,28.06l4.13,4.13L4.49,76.05c-.48,.48-1.27,.48-1.75,0l-2.38-2.38c-.48-.48-.48-1.27,0-1.75Z"/>
          <path class="cls-1" d="M67.7,46.19c-3.68-.95-6.19-4.34-6.04-8.13,.02-.65-.48-1.2-1.13-1.22-.55-.02-1.05,.34-1.19,.88-.95,3.68-4.34,6.19-8.13,6.04-.65-.02-1.2,.48-1.22,1.13-.02,.55,.34,1.05,.88,1.19,3.68,.95,6.19,4.34,6.04,8.13-.02,.65,.48,1.2,1.13,1.22,.55,.02,1.05-.34,1.19-.88,.95-3.68,4.34-6.19,8.13-6.04,.65,.02,1.2-.48,1.22-1.13,.02-.55-.34-1.05-.88-1.19h0Z"/>
          <path class="cls-1" d="M67.91,3.43c-2.22,1.55-5.22,1.33-7.2-.52-.48-.44-1.22-.41-1.67,.06-.37,.4-.42,1.02-.11,1.47,1.55,2.22,1.33,5.22-.52,7.2-.44,.48-.41,1.22,.07,1.67,.4,.37,1.01,.42,1.47,.11,2.22-1.55,5.22-1.33,7.2,.52,.48,.44,1.22,.41,1.67-.07,.37-.4,.42-1.01,.11-1.47-1.55-2.22-1.33-5.22,.52-7.2,.44-.48,.41-1.22-.07-1.67-.4-.37-1.01-.42-1.47-.11h0Z"/>
          <path class="cls-1" d="M20.25,7.9c4.54,2.54,6.68,7.91,5.15,12.88-.19,.62,.16,1.28,.79,1.47,.53,.16,1.1-.07,1.37-.55,2.54-4.54,7.91-6.68,12.88-5.15,.62,.19,1.28-.16,1.47-.79,.16-.53-.07-1.1-.55-1.37-4.54-2.54-6.68-7.91-5.15-12.88,.19-.62-.16-1.28-.79-1.47-.53-.16-1.1,.07-1.37,.55-2.54,4.54-7.91,6.68-12.88,5.15-.62-.19-1.28,.16-1.47,.79-.16,.53,.07,1.1,.55,1.37h0Z"/>
        </g>
      </g>
    </g>
  </g>
</svg>